<?xml version="1.0" encoding="utf-8"?>
<svg enable-background="new 36.471 38.394 437.749 439.6" height="439.6" viewBox="36.471 38.394 437.749 439.6" width="437.749" xmlns="http://www.w3.org/2000/svg" xmlns:xlink="http://www.w3.org/1999/xlink">
   <linearGradient id="a" gradientTransform="matrix(.6278 .7783 -.7783 .6278 295.9889 -102.6574)" gradientUnits="userSpaceOnUse" x1="43.3452" x2="467.3457" y1="258.1934" y2="258.1934">
      <stop offset="0" stop-color="#fff"/>
      <stop offset=".5368" stop-color="#eee"/>
      <stop offset="1" stop-color="#e5e5e5"/>
   </linearGradient>
   <linearGradient id="b" gradientTransform="matrix(.6278 .7783 -.7783 .6278 295.9889 -102.6574)" gradientUnits="userSpaceOnUse" x1="35.8452" x2="474.8457" y1="258.1934" y2="258.1934">
      <stop offset="0" stop-color="#ff5e4e"/>
      <stop offset=".1505" stop-color="#ff5c6d"/>
      <stop offset=".1694" stop-color="#ff5e73"/>
      <stop offset=".2476" stop-color="#ff6385"/>
      <stop offset=".3026" stop-color="#ff658c"/>
      <stop offset=".3685" stop-color="#e4729f"/>
      <stop offset=".4329" stop-color="#d17cad"/>
      <stop offset=".4772" stop-color="#ca7fb2"/>
      <stop offset=".5528" stop-color="#9d6cff"/>
      <stop offset=".5934" stop-color="#9870ff" stop-opacity=".9882"/>
      <stop offset=".6432" stop-color="#897afe" stop-opacity=".9725"/>
      <stop offset=".6979" stop-color="#708cfe" stop-opacity=".9529"/>
      <stop offset=".7556" stop-color="#4da4fd" stop-opacity=".9333"/>
      <stop offset=".8022" stop-color="#2cbcfc" stop-opacity=".9176"/>
      <stop offset="1" stop-color="#00c7ff"/>
   </linearGradient>
   <linearGradient id="c" gradientUnits="userSpaceOnUse" x1="128.63179295" x2="384.0201395" y1="90.89488104" y2="422.37177288">
      <stop offset="0" stop-color="#ff5e4e"/>
      <stop offset=".249" stop-color="#ff5c6d"/>
      <stop offset=".3765" stop-color="#ff658c"/>
      <stop offset=".497" stop-color="#ca7fb2"/>
      <stop offset=".6267" stop-color="#9d6cff"/>
      <stop offset=".7628" stop-color="#2cbcfc" stop-opacity=".9176"/>
      <stop offset="1" stop-color="#00c7ff"/>
   </linearGradient>
   <path d="m131.94 430.507c-94.767-68.476-116.341-201.133-48.188-296.3 68.149-95.165 200.227-116.803 294.996-48.327 94.767 68.473 116.342 201.13 48.193 296.3-68.154 95.165-200.228 116.803-295.001 48.327z" fill="url(#a)" stroke="url(#b)" stroke-miterlimit="10" stroke-width="15"/>
   <path d="m330.626 359.353c13.384-3.925 22.834-13.445 26.701-26.892l1.141-3.952.15-106.015c.111-79.393.004-106.509-.437-107.989-.464-1.569-1.2-2.885-2.163-3.925-1.417-.873-3.12-1.333-5.05-1.33-1.33 0-5.951.641-10.261 1.425-19.069 3.472-131.468 25.858-133.388 26.568-2.97 1.098-5.912 3.707-7.308 6.476l-1.183 2.346c0 0-.559 166.171-1.42 168.041-1.309 2.847-4.216 5.544-6.896 6.403-1.27.409-6.289 1.535-11.161 2.503-22.552 4.488-30.927 7.721-38.012 14.677-4.024 3.949-7.004 9.341-8.292 14.998-1.232 5.408-.82 13.5.935 18.421 1.839 5.146 4.799 9.541 8.669 12.999 3.518 2.711 7.671 4.729 12.34 5.927 10.323 2.643 29.65-.297 39.53-6.012 4.132-2.391 9.447-7.403 12.211-11.526 1.096-1.633 2.74-4.917 3.661-7.304 3.218-8.358 3.319-157.221 3.73-159.096.698-3.182 2.873-5.511 5.87-6.302 2.701-.709 110.93-22.107 113.977-22.534 2.68-.372 5.21.491 6.592 2.193.82.44 1.512 1.033 1.997 1.763.879 1.309.932 3.897 1.063 51.028.15 54.247.217 52.975-2.732 56.399-2.146 2.489-4.822 3.454-15.823 5.698-16.737 3.417-22.464 5.04-28.875 8.167-8.003 3.911-12.448 8.194-15.883 15.308-2.429 5.033-3.336 8.805-3.329 13.813.014 8.959 3.105 15.956 10.075 22.807.643.631 1.273 1.218 1.909 1.77 3.511 2.715 7.092 4.352 11.594 5.389 6.79 1.563 20.61.534 30.068-2.242z" fill="url(#c)"/>
</svg>
