<?xml version="1.0" encoding="utf-8"?>
<!-- Svg Vector Icons : http://www.onlinewebfonts.com/icon -->
<!DOCTYPE svg PUBLIC "-//W3C//DTD SVG 1.1//EN" "http://www.w3.org/Graphics/SVG/1.1/DTD/svg11.dtd">
<svg version="1.1" xmlns="http://www.w3.org/2000/svg" xmlns:xlink="http://www.w3.org/1999/xlink" x="0px" y="0px" viewBox="0 0 1000 1000" enable-background="new 0 0 1000 1000" xml:space="preserve" width="12px" height="12px">
<metadata> Svg Vector Icons : http://www.onlinewebfonts.com/icon </metadata>
<g><path d="M820.6,351.1c27.7,5.5,54,15.1,78.1,28.1c5-9.9,3.8-22.2-3.9-31.1c-109.6-126.4-269.6-198.9-439-198.9c-169.4,0-329.4,72.4-439,198.8c-10.1,11.7-9,29.4,2.6,39.6c11.6,10.2,29.2,9,39.3-2.7c99-114.1,243.7-179.6,397-179.6C593.3,205.4,723.8,258,820.6,351.1z M455.9,656.1c-30.7,0-55.7,24.8-55.7,55.2s25,55.2,55.7,55.2c22.5,0,41.8-13.2,50.7-32.3c-9-21.5-15.4-44.4-18.7-68.2C478.7,659.8,467.7,656.1,455.9,656.1z M606.6,395.1c18.7-12.9,39.1-23.6,60.7-31.7c-63.1-36.8-135.7-56.7-211.4-56.7c-127.2,0-245.6,56.2-324.8,154.1c-9.7,12-7.9,29.7,4,39.5c12,9.8,29.6,7.9,39.2-4c68.6-84.8,171.2-133.4,281.6-133.4C508.9,362.8,560.1,374,606.6,395.1z M765.5,401.8c-124,0-224.5,100.5-224.5,224.5c0,124,100.5,224.5,224.5,224.5S990,750.2,990,626.3C990,502.3,889.5,401.8,765.5,401.8z M901.6,741.5c5.7,5.7,5.7,15,0,20.7c-2.9,2.9-6.6,4.3-10.4,4.3c-3.8,0-7.5-1.4-10.4-4.3l-115.8-116l-115.8,116c-2.9,2.9-6.6,4.3-10.4,4.3s-7.5-1.4-10.4-4.3c-5.7-5.7-5.7-15,0-20.7l115.6-115.8L628.5,509.8c-5.7-5.7-5.7-15,0-20.7c5.7-5.7,15-5.7,20.8,0l115.8,116l115.8-116c5.7-5.8,15-5.8,20.7,0c5.7,5.7,5.7,15,0,20.7L786.1,625.7L901.6,741.5z M245.1,575.3c-8.7,12.8-5.3,30.3,7.4,39c4.8,3.3,10.2,4.9,15.6,4.9c8.9,0,17.7-4.3,23.1-12.3c36.6-54.3,98.2-86.7,164.7-86.7c16.2,0,32.2,2,47.6,5.7c6.9-18,15.6-35.1,25.8-51.1c-23.5-7-48.2-10.7-73.4-10.7C370.9,464.1,292.1,505.7,245.1,575.3z"/></g>
</svg>