<?xml version="1.0" encoding="utf-8"?>
<!-- Generator: Adobe Illustrator 18.0.0, SVG Export Plug-In . SVG Version: 6.00 Build 0)  -->
<!DOCTYPE svg PUBLIC "-//W3C//DTD SVG 1.1//EN" "http://www.w3.org/Graphics/SVG/1.1/DTD/svg11.dtd">
<svg version="1.1" id="Layer_1" xmlns="http://www.w3.org/2000/svg" xmlns:xlink="http://www.w3.org/1999/xlink" x="0px" y="0px"
	 viewBox="0 0 64 64" enable-background="new 0 0 64 64" xml:space="preserve" fill="none" width="16" height="16">
<g>
	<path d="M55.8,10c-0.9-4.6-5-8-9.8-8s-8.9,3.4-9.8,8H0v4h36.2c0.9,4.6,5,8,9.8,8s8.9-3.4,9.8-8H64v-4H55.8z M46,18
		c-3.3,0-6-2.7-6-6s2.7-6,6-6s6,2.7,6,6S49.3,18,46,18z" fill="#42A5F5"/>
	<path d="M17,22c-4.8,0-8.9,3.4-9.8,8H0v4h7.2c0.9,4.6,5,8,9.8,8s8.9-3.4,9.8-8H64v-4H26.8C25.9,25.4,21.8,22,17,22z M17,38
		c-3.3,0-6-2.7-6-6s2.7-6,6-6s6,2.7,6,6S20.3,38,17,38z" fill="#42A5F5"/>
	<path d="M39,42c-4.8,0-8.9,3.4-9.8,8H0v4h29.2c0.9,4.6,5,8,9.8,8s8.9-3.4,9.8-8H64v-4H48.8C47.9,45.4,43.8,42,39,42z M39,58
		c-3.3,0-6-2.7-6-6s2.7-6,6-6s6,2.7,6,6S42.3,58,39,58z" fill="#42A5F5"/>
</g>
</svg>