<svg width="16" height="16" viewBox="0 0 16 16" fill="none" xmlns="http://www.w3.org/2000/svg">
<path d="M4.89286 8.75C4.71607 8.75 4.57143 8.60536 4.57143 8.42857V7.57143C4.57143 7.39464 4.71607 7.25 4.89286 7.25H11.1071C11.2839 7.25 11.4286 7.39464 11.4286 7.57143V8.42857C11.4286 8.60536 11.2839 8.75 11.1071 8.75H4.89286ZM14 3.28571V12.7143C14 13.4241 13.4241 14 12.7143 14H3.28571C2.57589 14 2 13.4241 2 12.7143V3.28571C2 2.57589 2.57589 2 3.28571 2H12.7143C13.4241 2 14 2.57589 14 3.28571ZM12.7143 12.5536V3.44643C12.7143 3.35804 12.642 3.28571 12.5536 3.28571H3.44643C3.35804 3.28571 3.28571 3.35804 3.28571 3.44643V12.5536C3.28571 12.642 3.35804 12.7143 3.44643 12.7143H12.5536C12.642 12.7143 12.7143 12.642 12.7143 12.5536Z" fill="url(#paint0_linear)"/>
<defs>
<linearGradient id="paint0_linear" x1="8" y1="2" x2="8" y2="14" gradientUnits="userSpaceOnUse">
<stop stop-color="#6879F5"/>
<stop offset="1" stop-color="#976AF7"/>
</linearGradient>
</defs>
</svg>
