<svg width="16" height="16" viewBox="0 0 16 16" fill="none" xmlns="http://www.w3.org/2000/svg">
<rect width="16" height="16" rx="8" fill="#384357"/>
<mask id="mask0" mask-type="alpha" maskUnits="userSpaceOnUse" x="2" y="2" width="12" height="12">
<rect x="2.125" y="2.625" width="11.875" height="10.7517" fill="white"/>
</mask>
<g mask="url(#mask0)">
<mask id="mask1" mask-type="alpha" maskUnits="userSpaceOnUse" x="8" y="10" width="4" height="5">
<rect width="2.56538" height="2.56538" transform="matrix(-0.707107 0.707107 0.707107 0.707107 9.8765 10.8091)" fill="white"/>
</mask>
<g mask="url(#mask1)">
<path fill-rule="evenodd" clip-rule="evenodd" d="M11.6905 12.6231C10.6886 13.625 9.06434 13.625 8.06249 12.6231C7.06065 11.6213 7.06065 9.99696 8.06249 8.99511C9.06434 7.99327 10.6886 7.99327 11.6905 8.99511C12.6923 9.99696 12.6923 11.6213 11.6905 12.6231Z" fill="#00B4EE"/>
</g>
<mask id="mask2" mask-type="alpha" maskUnits="userSpaceOnUse" x="2" y="8" width="5" height="5">
<rect x="6.2485" y="10.8091" width="2.56538" height="2.56539" transform="rotate(135 6.2485 10.8091)" fill="white"/>
</mask>
<g mask="url(#mask2)">
<path fill-rule="evenodd" clip-rule="evenodd" d="M4.43451 8.99512C3.43266 9.99696 3.43266 11.6213 4.43451 12.6231C5.43635 13.625 7.06066 13.625 8.06251 12.6231C9.06435 11.6213 9.06435 9.99696 8.06251 8.99512C7.06066 7.99327 5.43635 7.99327 4.43451 8.99512Z" fill="#00C0FA"/>
</g>
<mask id="mask3" mask-type="alpha" maskUnits="userSpaceOnUse" x="4" y="10" width="5" height="5">
<rect width="2.56538" height="2.56538" transform="matrix(-0.707107 0.707107 0.707107 0.707107 6.2485 10.8091)" fill="white"/>
</mask>
<g mask="url(#mask3)">
<path fill-rule="evenodd" clip-rule="evenodd" d="M8.0625 12.6231C7.06066 13.625 5.43635 13.625 4.4345 12.6231C3.43266 11.6213 3.43266 9.99696 4.4345 8.99511C5.43635 7.99327 7.06066 7.99327 8.0625 8.99511C9.06435 9.99696 9.06435 11.6213 8.0625 12.6231Z" fill="#00B4EE"/>
</g>
<mask id="mask4" mask-type="alpha" maskUnits="userSpaceOnUse" x="6" y="5" width="4" height="4">
<rect width="2.56538" height="2.56538" transform="matrix(0.707107 -0.707107 -0.707107 -0.707107 8.0625 8.99512)" fill="white"/>
</mask>
<g mask="url(#mask4)">
<path fill-rule="evenodd" clip-rule="evenodd" d="M6.2485 7.18113C7.25034 6.17928 8.87466 6.17928 9.8765 7.18113C10.8783 8.18297 10.8783 9.80729 9.8765 10.8091C8.87466 11.811 7.25034 11.811 6.2485 10.8091C5.24666 9.80729 5.24666 8.18297 6.2485 7.18113Z" fill="#00E2FF"/>
</g>
<rect x="9.8765" y="10.8091" width="2.56538" height="2.56539" transform="rotate(135 9.8765 10.8091)" fill="#00C0FA"/>
<rect x="11.6905" y="8.99512" width="2.56538" height="2.56538" transform="rotate(135 11.6905 8.99512)" fill="#00CEFC"/>
<rect x="8.0625" y="8.99512" width="2.56538" height="2.56538" transform="rotate(135 8.0625 8.99512)" fill="#00CEFC"/>
<mask id="mask5" mask-type="alpha" maskUnits="userSpaceOnUse" x="9" y="8" width="5" height="5">
<rect x="9.8765" y="10.8091" width="2.56538" height="2.56539" transform="rotate(-45 9.8765 10.8091)" fill="white"/>
</mask>
<g mask="url(#mask5)">
<path fill-rule="evenodd" clip-rule="evenodd" d="M11.6905 12.6231C12.6923 11.6213 12.6923 9.99696 11.6905 8.99512C10.6886 7.99328 9.06433 7.99328 8.06249 8.99512C7.06064 9.99696 7.06064 11.6213 8.06249 12.6231C9.06433 13.625 10.6886 13.625 11.6905 12.6231Z" fill="#00C0FA"/>
</g>
<path fill-rule="evenodd" clip-rule="evenodd" d="M6.27487 5.52498C7.08585 5.52498 7.74329 4.87579 7.74329 4.07499C7.74329 3.27418 7.08585 2.625 6.27487 2.625C5.46389 2.625 4.80646 3.27418 4.80646 4.07499C4.80646 4.87579 5.46389 5.52498 6.27487 5.52498Z" fill="#00CEFC"/>
<path fill-rule="evenodd" clip-rule="evenodd" d="M3.59341 7.9206C4.4044 7.9206 5.06183 7.27142 5.06183 6.47062C5.06183 5.66981 4.4044 5.02063 3.59341 5.02063C2.78243 5.02063 2.125 5.66981 2.125 6.47062C2.125 7.27142 2.78243 7.9206 3.59341 7.9206Z" fill="#00CEFC"/>
<path fill-rule="evenodd" clip-rule="evenodd" d="M9.85014 5.52498C10.6611 5.52498 11.3186 4.87579 11.3186 4.07499C11.3186 3.27418 10.6611 2.625 9.85014 2.625C9.03915 2.625 8.38172 3.27418 8.38172 4.07499C8.38172 4.87579 9.03915 5.52498 9.85014 5.52498Z" fill="#00CEFC"/>
<path fill-rule="evenodd" clip-rule="evenodd" d="M12.5316 7.9206C13.3426 7.9206 14 7.27142 14 6.47062C14 5.66981 13.3426 5.02063 12.5316 5.02063C11.7206 5.02063 11.0632 5.66981 11.0632 6.47062C11.0632 7.27142 11.7206 7.9206 12.5316 7.9206Z" fill="#00CEFC"/>
</g>
</svg>
