<svg width="12" height="16" viewBox="0 0 12 16" fill="none" xmlns="http://www.w3.org/2000/svg">
<g opacity="0.85">
<path fill-rule="evenodd" clip-rule="evenodd" d="M9.54003 7.49999C9.69848 8.56666 9.37325 9.68332 8.53933 10.5C7.31346 11.7083 5.42047 11.8583 4.02782 10.95L5.00351 9.99999L1.41765 9.49999L1.918 13L3.01044 11.95C4.97849 13.4 7.76378 13.2583 9.54837 11.5C10.5824 10.475 11.0578 9.12499 10.9994 7.78333L9.54003 7.49999V7.49999ZM3.4691 5.5C4.69496 4.29167 6.58796 4.14167 7.9806 5.05L7.00492 6L10.5908 6.5L10.0904 3L8.99799 4.05C7.02994 2.6 4.24464 2.74167 2.45172 4.5C1.41766 5.525 0.95066 6.875 1.00903 8.21667L2.46839 8.50833C2.30995 7.44167 2.63518 6.31667 3.4691 5.5V5.5Z" fill="black"/>
</g>
</svg>
