<svg id="Layer" enable-background="new 0 0 512 512" height="512" viewBox="0 0 512 512" width="512" xmlns="http://www.w3.org/2000/svg"><path d="m44 352h67.876l129.546 99.064c4.185 3.202 9.308 4.936 14.578 4.936h24c13.255 0 24-10.745 24-24v-352c0-13.255-10.745-24-24-24h-24c-5.27 0-10.393 1.734-14.579 4.936l-129.545 99.064h-67.876c-24.262 0-44 19.738-44 44v104c0 24.262 19.738 44 44 44zm212-241.787v291.574l-112-85.647v-120.28zm-208 97.787h48v96h-48z"/><path d="m341.634 360.55c4.618 4.276 10.466 6.391 16.3 6.391 6.452 0 12.886-2.586 17.616-7.693 26.084-28.171 40.45-64.839 40.45-103.248s-14.366-75.077-40.45-103.247c-9.006-9.724-24.19-10.31-33.916-1.303-9.726 9.005-10.31 24.19-1.304 33.916 17.843 19.27 27.67 44.355 27.67 70.634s-9.827 51.364-27.67 70.634c-9.006 9.725-8.422 24.911 1.304 33.916z"/><path d="m422.19 438.59c6.131 0 12.263-2.335 16.947-7.006 46.987-46.859 72.863-109.216 72.863-175.584s-25.876-128.725-72.863-175.584c-9.386-9.359-24.582-9.34-33.941.047-9.36 9.385-9.339 24.581.046 33.94 37.891 37.788 58.758 88.075 58.758 141.597s-20.867 103.809-58.758 141.597c-9.385 9.359-9.406 24.556-.046 33.94 4.689 4.701 10.841 7.053 16.994 7.053z"/></svg>