<svg width="16" height="16" viewBox="0 0 16 16" fill="none" xmlns="http://www.w3.org/2000/svg">
<path d="M8 2C4.68548 2 2 4.68548 2 8C2 11.3145 4.68548 14 8 14C11.3145 14 14 11.3145 14 8C14 4.68548 11.3145 2 8 2ZM11.4839 8.67742C11.4839 8.8371 11.3532 8.96774 11.1935 8.96774H8.96774V11.1935C8.96774 11.3532 8.8371 11.4839 8.67742 11.4839H7.32258C7.1629 11.4839 7.03226 11.3532 7.03226 11.1935V8.96774H4.80645C4.64677 8.96774 4.51613 8.8371 4.51613 8.67742V7.32258C4.51613 7.1629 4.64677 7.03226 4.80645 7.03226H7.03226V4.80645C7.03226 4.64677 7.1629 4.51613 7.32258 4.51613H8.67742C8.8371 4.51613 8.96774 4.64677 8.96774 4.80645V7.03226H11.1935C11.3532 7.03226 11.4839 7.1629 11.4839 7.32258V8.67742Z" fill="#4F5258"/>
</svg>
