<?xml version="1.0" encoding="iso-8859-1"?>
<!-- Generator: Adobe Illustrator 19.0.0, SVG Export Plug-In . SVG Version: 6.00 Build 0)  -->
<svg version="1.1" id="Layer_1" xmlns="http://www.w3.org/2000/svg" xmlns:xlink="http://www.w3.org/1999/xlink" x="0px" y="0px"
	 viewBox="0 0 512 512" width="16" height="16" style="enable-background:new 0 0 512 512;" xml:space="preserve">
<g>
	<g>
		<path d="M164.7,362.6c-12.2,0.1-15.3,14.7-15.3,22.4c0,11.2,9.1,20.3,20.3,20.3h7.1c11.3,0,15.3-4,15.3-15.3v-27.4H164.7z"/>
	</g>
</g>
<g>
	<g>
		<path d="M335.3,362.6c-12.1,0.1-15.3,14.7-15.3,22.4c0,11.2,9.1,20.3,20.3,20.3h7.1c11.3,0,15.3-4,15.3-15.3v-27.4H335.3z"/>
	</g>
</g>
<g>
	<g>
		<path d="M490.7,128V85.3c0-11.8-9.5-21.3-21.3-21.3H448V21.3C448,9.5,438.5,0,426.7,0H85.4C73.6,0,64,9.5,64,21.3V64H42.7
			c-11.8,0-21.3,9.6-21.3,21.3V128C9.6,128,0,137.5,0,149.3v341.3C0,502.4,9.6,512,21.4,512h469.3c11.8,0,21.3-9.6,21.3-21.3V149.3
			C512,137.5,502.5,128,490.7,128z M106.7,42.7h298.7V64H106.7V42.7z M405.4,390.1c0,34.6-23.3,57.9-57.9,57.9h-7.1
			c-34.7,0-63-28.2-63-63c0-37.1,24.9-65,57.9-65h27.4v-61.2l-128,16v66.5v48.8c0,34.6-23.3,57.9-57.9,57.9h-7.1
			c-34.7,0-63-28.2-63-63c0-37.1,24.9-65,57.9-65H192v-64c0-1,0.4-1.9,0.6-2.9c0.2-1.4,0.4-2.8,0.8-4.1c0.5-1.3,1.2-2.5,1.9-3.6
			c0.7-1.2,1.3-2.3,2.2-3.3c0.9-1,2-1.9,3.1-2.7c1.1-0.8,2.1-1.6,3.3-2.2c1.3-0.6,2.6-1,4.1-1.4c0.9-0.3,1.7-0.8,2.8-0.9l170.7-21.3
			c0.5-0.1,0.9,0.1,1.3,0.1c0.5,0,0.9-0.3,1.3-0.3c1,0,1.9,0.4,2.9,0.6c1.5,0.2,2.9,0.4,4.2,0.9c1.2,0.4,2.3,1.1,3.4,1.7
			c1.2,0.7,2.4,1.4,3.5,2.4c1,0.9,1.7,1.9,2.5,2.9c0.9,1.1,1.7,2.2,2.3,3.5c0.6,1.3,1,2.6,1.3,4c0.3,0.9,0.8,1.8,0.9,2.8
			c0.1,0.4-0.1,0.9-0.1,1.3c0,0.5,0.3,0.9,0.3,1.3v106.5h0.1V390.1z M448,128H64v-21.3h21.3h341.3H448V128z" fill="url(#paint0_linear)"/>
	</g>
</g>
<g>
</g>
<g>
</g>
<g>
</g>
<g>
</g>
<g>
</g>
<g>
</g>
<g>
</g>
<g>
</g>
<g>
</g>
<g>
</g>
<g>
</g>
<g>
</g>
<g>
</g>
<g>
</g>
<g>
</g>
<defs>
<linearGradient id="paint0_linear" x1="8" y1="2" x2="8" y2="14" gradientUnits="userSpaceOnUse">
<stop stop-color="#6879F5"/>
<stop offset="1" stop-color="#976AF7"/>
</linearGradient>
</defs>
</svg>
