<?xml version="1.0" encoding="iso-8859-1"?>
<!-- Generator: Adobe Illustrator 16.0.0, SVG Export Plug-In . SVG Version: 6.00 Build 0)  -->
<!DOCTYPE svg PUBLIC "-//W3C//DTD SVG 1.1//EN" "http://www.w3.org/Graphics/SVG/1.1/DTD/svg11.dtd">
<svg version="1.1" id="Capa_1" xmlns="http://www.w3.org/2000/svg" xmlns:xlink="http://www.w3.org/1999/xlink" x="0px" y="0px"
	 width="16px" height="16px" viewBox="0 0 441.739 441.739" style="enable-background:new 0 0 441.739 441.739;"
	 xml:space="preserve">
<g>
	<path d="M297.896,390.035l-0.225,14.383c12.407-5.313,24.213-11.773,35.266-19.256c-1.194-18.077,6.239-38.103,21.752-53.619
		c13.041-13.04,29.707-20.786,46.174-21.721c3.318-6.195,6.332-12.562,9.017-19.103v-40.127l-111.983,30.02v102.033l0.016,0.293
		l-0.016,0.48V390.035z" fill="url(#paint0_linear)"/>
	<path d="M421.608,169.114C402.257,72.789,317.023,0,215.082,0C98.929,0,4.434,94.497,4.434,210.65
		c0,103.672,75.298,190.033,174.073,207.405c-3.232-19.372,4.051-41.902,21.121-58.978c13.926-13.93,31.973-21.908,49.51-21.908
		c1.907,0,3.795,0.092,5.634,0.276v-56.625c-11.729,6.66-25.261,10.52-39.697,10.52c-44.486,0-80.684-36.203-80.684-80.69
		c0-44.488,36.197-80.686,80.684-80.686c41.897,0,76.405,32.1,80.297,72.985L421.608,169.114z M150.09,135.804L99.063,52.153
		c0,0,35.554-31.468,78.453-31.468l15.751,92.607C193.268,113.284,163.074,114.703,150.09,135.804z M208.941,115.56l-14.056-98.869
		l15.545-2.204l14.06,98.865L208.941,115.56z" fill="url(#paint0_linear)"/>
	<path d="M215.082,153.517c-31.504,0-57.134,25.629-57.134,57.134c0,31.502,25.629,57.138,57.134,57.138
		c15.417,0,29.406-6.164,39.706-16.13v-26.157v-4.203v-11.496h1.479h13.529l2.364-0.635
		C271.354,178.353,246.092,153.517,215.082,153.517z M215.082,228.368c-9.766,0-17.708-7.951-17.708-17.717
		s7.942-17.717,17.708-17.717c9.769,0,17.709,7.951,17.709,17.717S224.851,228.368,215.082,228.368z" fill="url(#paint0_linear)"/>
	<path d="M437.246,356.256h0.06v-71.817v-57.45v-1.487v-6.804v-16.108v-21.432l-1.739,0.467l-11.485,3.08l-128.771,34.518
		l-12.402,3.334l-11.057,2.958h-1.379v0.368v25.644v17.641v2.533v88.163c-5.902-4.7-13.356-7.001-21.344-7.001
		c-12.827,0-27.028,5.927-38.413,17.305c-15,15.008-20.556,34.925-15.589,50.152c1.491,4.585,3.85,8.784,7.302,12.251
		c0.054,0.044,0.116,0.076,0.172,0.128c6.162,6.079,14.491,9.041,23.518,9.041c11.229,0,23.515-4.557,34.059-13.257
		c1.587-1.311,3.149-2.705,4.645-4.207c3.526-3.527,6.324-7.374,8.784-11.334c4.625-7.405,7.546-15.284,8.336-22.922h0.244v-6.66
		c-0.008-0.133,0.008-0.261,0-0.393V268.562l142.588-38.215l0.802-0.217v52.346v30.729v19.163c-2.389-1.899-5.081-3.317-7.91-4.444
		c-3.755-1.494-7.803-2.332-12.066-2.484c-0.478-0.016-0.935-0.107-1.419-0.107c-4.561,0-9.297,0.789-14.006,2.268
		c-8.564,2.669-17.063,7.706-24.409,15.044c-8.977,8.984-14.443,19.74-16.45,30.196c-1.015,5.281-1.074,10.419-0.201,15.28
		c0.733,4.107,2.032,7.986,4.156,11.437c1.202,1.948,2.545,3.827,4.216,5.482c6.171,6.18,14.575,9.177,23.688,9.177
		c12.912,0,27.255-6.019,38.7-17.464C431.88,384.777,437.835,369.637,437.246,356.256z" fill="url(#paint0_linear)"/>
</g>
<g>
</g>
<g>
</g>
<g>
</g>
<g>
</g>
<g>
</g>
<g>
</g>
<g>
</g>
<g>
</g>
<g>
</g>
<g>
</g>
<g>
</g>
<g>
</g>
<g>
</g>
<g>
</g>
<g>
</g>
<defs>
<linearGradient id="paint0_linear" x1="8" y1="2" x2="8" y2="14" gradientUnits="userSpaceOnUse">
<stop stop-color="#6879F5"/>
<stop offset="1" stop-color="#976AF7"/>
</linearGradient>
</defs>
</svg>
