<?xml version="1.0" encoding="iso-8859-1"?>
<!-- Generator: Adobe Illustrator 19.0.0, SVG Export Plug-In . SVG Version: 6.00 Build 0)  -->
<svg version="1.1" id="Capa_1" xmlns="http://www.w3.org/2000/svg" xmlns:xlink="http://www.w3.org/1999/xlink" x="0px" y="0px"
	 viewBox="0 0 469.333 469.333" style="enable-background:new 0 0 469.333 469.333;" xml:space="preserve">
<path style="fill:#303C42;" d="M469.331,181.333c-0.003-3.298-1.521-6.409-4.133-8.427c0,0-26.228-20.345-60.198-47.004V85.333
	c0-23.531-19.135-42.667-42.667-42.667h-61.792c-15.199-12.413-28.389-23.387-37.198-31.198C254.869,3.972,244.768,0.001,234.671,0
	C224.565-0.001,214.462,3.976,206,11.469c-8.809,7.811-21.997,18.785-37.207,31.198h-62.46c-23.531,0-42.667,19.135-42.667,42.667
	v41.092c-33.632,26.397-59.521,46.47-59.531,46.48c-2.612,2.018-4.13,5.129-4.133,8.427H0v245.333
	c0,23.531,19.135,42.667,42.667,42.667h384c23.531,0,42.667-19.135,42.667-42.667V181.333H469.331z"/>
<g>
	<path style="fill:#CCCCCC;" d="M441.271,181.323c-8.398,6.518-21.207,16.48-36.271,28.259v-56.57
		C420.076,164.815,432.861,174.777,441.271,181.323z"/>
	<path style="fill:#CCCCCC;" d="M220.146,27.438c9.146-8.104,19.885-8.115,29.052,0.01c4.801,4.246,10.855,9.406,17.81,15.219
		h-64.674C209.29,36.853,215.345,31.689,220.146,27.438z"/>
</g>
<path style="fill:#FFFFFF;" d="M106.333,64h256c11.76,0,21.333,9.573,21.333,21.333v140.967
	c-47.695,37.461-107.372,84.93-134.469,108.918c-2.573,2.281-7.938,6.115-14.865,6.115c-5.063,0-9.948-2.052-14.531-6.115
	C192.413,310.967,132.602,263.319,85,225.87V85.333C85,73.573,94.573,64,106.333,64z"/>
<path style="fill:#CCCCCC;" d="M63.667,153.535v55.589c-14.771-11.569-27.336-21.361-35.604-27.79
	C36.336,174.888,48.891,165.103,63.667,153.535z"/>
<path style="fill:#FAFAFA;" d="M426.667,448h-384c-11.76,0-21.333-9.573-21.333-21.333V203.112
	c44.49,34.63,147.421,115.396,184.323,148.086c8.479,7.5,18.396,11.469,28.677,11.469c10.354,0,20.656-4.073,29.01-11.469
	C301.694,317.238,406.667,235.23,448,203.105v223.561C448,438.427,438.427,448,426.667,448z"/>
<linearGradient id="SVGID_1_" gradientUnits="userSpaceOnUse" x1="-61.0367" y1="619.6301" x2="-45.5898" y2="604.1841" gradientTransform="matrix(21.3333 0 0 -21.3333 1430.1112 13315.2227)">
	<stop  offset="0" style="stop-color:#000000;stop-opacity:0.1"/>
	<stop  offset="1" style="stop-color:#000000;stop-opacity:0"/>
</linearGradient>
<path style="fill:url(#SVGID_1_);" d="M426.671,448c11.76,0,21.333-9.573,21.333-21.333V203.105
	c-41.333,32.125-146.306,114.133-184.656,148.092c-8.354,7.396-18.656,11.469-29.01,11.469c-10.281,0-20.198-3.969-28.677-11.469
	c-36.902-32.69-139.833-113.456-184.323-148.086L266.225,448H426.671z"/>
<g>
	<circle style="fill:#7CB342;" cx="202.667" cy="160" r="10.667"/>
	<circle style="fill:#7CB342;" cx="266.667" cy="160" r="10.667"/>
	<path style="fill:#7CB342;" d="M234.667,234.667c38.156,0,51.656-26.115,52.208-27.229c2.604-5.208,0.51-11.479-4.667-14.156
		c-5.167-2.719-11.573-0.646-14.344,4.479c-0.344,0.635-8.677,15.573-33.198,15.573c-24.333,0-32.729-14.719-33.188-15.563
		c-2.667-5.177-8.99-7.229-14.25-4.646c-5.271,2.635-7.406,9.042-4.771,14.313C183.01,208.552,196.51,234.667,234.667,234.667z"/>
</g>
<linearGradient id="SVGID_2_" gradientUnits="userSpaceOnUse" x1="-66.724" y1="616.4318" x2="-44.0365" y2="605.8521" gradientTransform="matrix(21.3333 0 0 -21.3333 1430.1112 13315.2227)">
	<stop  offset="0" style="stop-color:#FFFFFF;stop-opacity:0.2"/>
	<stop  offset="1" style="stop-color:#FFFFFF;stop-opacity:0"/>
</linearGradient>
<path style="fill:url(#SVGID_2_);" d="M469.331,181.333c-0.003-3.298-1.521-6.409-4.133-8.427c0,0-26.228-20.345-60.198-47.004
	V85.333c0-23.531-19.135-42.667-42.667-42.667h-61.792c-15.199-12.413-28.389-23.387-37.198-31.198
	C254.869,3.972,244.768,0.001,234.671,0C224.565-0.001,214.462,3.976,206,11.469c-8.809,7.811-21.997,18.785-37.207,31.198h-62.46
	c-23.531,0-42.667,19.135-42.667,42.667v41.092c-33.632,26.397-59.521,46.47-59.531,46.48c-2.612,2.018-4.13,5.129-4.133,8.427H0
	v245.333c0,23.531,19.135,42.667,42.667,42.667h384c23.531,0,42.667-19.135,42.667-42.667V181.333H469.331z"/>
<g>
</g>
<g>
</g>
<g>
</g>
<g>
</g>
<g>
</g>
<g>
</g>
<g>
</g>
<g>
</g>
<g>
</g>
<g>
</g>
<g>
</g>
<g>
</g>
<g>
</g>
<g>
</g>
<g>
</g>
</svg>
