<svg width="16" height="16" viewBox="0 0 16 16" fill="none" xmlns="http://www.w3.org/2000/svg">
<path fill-rule="evenodd" clip-rule="evenodd" d="M15 8.77666V7.17323L13.06 6.53185L12.61 5.43951L13.49 3.59556L12.36 2.46314L10.55 3.37509L9.46 2.92412L8.77 1H7.17L6.54 2.94417L5.43 3.39513L3.59 2.51324L2.46 3.64567L3.37 5.45956L2.92 6.5519L1 7.23336V8.82677L2.94 9.46815L3.39 10.5605L2.51 12.4044L3.64 13.5369L5.45 12.6249L6.54 13.0759L7.23 15H8.82L9.45 13.0558L10.56 12.6049L12.4 13.4868L13.53 12.3543L12.61 10.5404L13.08 9.4481L15 8.75662V8.77666ZM8 11.0115C6.34 11.0115 5 9.66858 5 8.00501C5 6.34145 6.34 4.99857 8 4.99857C9.66 4.99857 11 6.34145 11 8.00501C11 9.66858 9.66 11.0115 8 11.0115V11.0115Z" fill="#42A5F5"/>
</svg>
