<svg width="8" height="16" viewBox="0 0 8 16" fill="none" xmlns="http://www.w3.org/2000/svg">
<path d="M224 96C224 42.981 181.019 0 128 0C74.9807 0 31.9997 42.981 31.9997 96V299.347C12.2247 321.756 0.165682 351.136 0.00168226 383.333C-0.357318 453.636 56.7887 511.509 127.091 511.997C127.39 511.999 127.701 512 128 512C198.698 512 256 454.696 256 384C256 351.541 243.912 321.91 224 299.347V96ZM128 464L127.424 463.998C83.5637 463.694 47.7767 427.454 48.0007 383.578C48.1737 349.598 67.2667 331.926 79.9997 317.498V96C79.9997 69.533 101.533 48 128 48C154.467 48 176 69.533 176 96V317.498C188.63 331.81 208 349.662 208 384C208 428.112 172.112 464 128 464ZM192 384C192 419.346 163.346 448 128 448C92.6537 448 63.9997 419.346 63.9997 384C63.9997 360.315 76.8757 339.651 95.9997 328.583V96C95.9997 78.327 110.327 64 128 64C145.673 64 160 78.327 160 96V328.583C179.124 339.651 192 360.315 192 384Z" fill="black"/>
</svg>
