<svg width="16" height="16" viewBox="0 0 16 16" fill="none" xmlns="http://www.w3.org/2000/svg">
<path fill-rule="evenodd" clip-rule="evenodd" d="M11.6786 13.1612C10.5602 14.2796 8.74693 14.2796 7.62855 13.1612C6.51017 12.0428 6.51015 10.2296 7.62853 9.11118C8.74691 7.9928 10.5602 7.9928 11.6785 9.11118C12.7969 10.2296 12.7969 12.0428 11.6786 13.1612Z" fill="#A641F4"/>
<path fill-rule="evenodd" clip-rule="evenodd" d="M3.57869 9.1112C2.46031 10.2296 2.46031 12.0428 3.57869 13.1612C4.69707 14.2796 6.51017 14.2796 7.62855 13.1612C8.74693 12.0428 8.74691 10.2296 7.62853 9.11118C6.51015 7.9928 4.69707 7.99282 3.57869 9.1112Z" fill="#A641F4"/>
<path fill-rule="evenodd" clip-rule="evenodd" d="M7.62855 13.1612C6.51017 14.2796 4.69707 14.2796 3.57869 13.1612C2.46031 12.0428 2.46031 10.2296 3.57869 9.1112C4.69707 7.99282 6.51015 7.9928 7.62853 9.11118C8.74691 10.2296 8.74693 12.0428 7.62855 13.1612Z" fill="#A641F4"/>
<path fill-rule="evenodd" clip-rule="evenodd" d="M5.60356 7.0862C6.72194 5.96782 8.53519 5.96782 9.65357 7.0862C10.772 8.20458 10.7719 10.0178 9.65356 11.1362C8.53518 12.2546 6.72208 12.2546 5.6037 11.1362C4.48532 10.0178 4.48517 8.20458 5.60356 7.0862Z" fill="#A641F4"/>
<path d="M9.65356 11.1362L7.62855 13.1612L5.6037 11.1362L7.62853 9.11118L9.65356 11.1362Z" fill="#A641F4"/>
<path d="M11.6785 9.11118L9.65356 11.1362L7.62853 9.11118L9.65357 7.0862L11.6785 9.11118Z" fill="#A641F4"/>
<path d="M7.62853 9.11118L5.6037 11.1362L3.57869 9.1112L5.60356 7.0862L7.62853 9.11118Z" fill="#A641F4"/>
<path fill-rule="evenodd" clip-rule="evenodd" d="M11.6786 13.1612C12.7969 12.0428 12.7969 10.2296 11.6785 9.11118C10.5602 7.9928 8.74691 7.9928 7.62853 9.11118C6.51015 10.2296 6.51017 12.0428 7.62855 13.1612C8.74693 14.2796 10.5602 14.2796 11.6786 13.1612Z" fill="#A641F4"/>
<path fill-rule="evenodd" clip-rule="evenodd" d="M5.63255 5.23731C6.53786 5.23731 7.27177 4.51261 7.27177 3.61865C7.27177 2.7247 6.53786 2 5.63255 2C4.72723 2 3.99332 2.7247 3.99332 3.61865C3.99332 4.51261 4.72723 5.23731 5.63255 5.23731Z" fill="#A641F4"/>
<path fill-rule="evenodd" clip-rule="evenodd" d="M2.63922 7.9116C3.54454 7.9116 4.27844 7.1869 4.27844 6.29295C4.27844 5.39899 3.54454 4.6743 2.63922 4.6743C1.7339 4.6743 1 5.39899 1 6.29295C1 7.1869 1.7339 7.9116 2.63922 7.9116Z" fill="#A641F4"/>
<path fill-rule="evenodd" clip-rule="evenodd" d="M9.62351 5.23731C10.5288 5.23731 11.2627 4.51261 11.2627 3.61865C11.2627 2.7247 10.5288 2 9.62351 2C8.7182 2 7.98429 2.7247 7.98429 3.61865C7.98429 4.51261 8.7182 5.23731 9.62351 5.23731Z" fill="#A641F4"/>
<path fill-rule="evenodd" clip-rule="evenodd" d="M12.6168 7.9116C13.5222 7.9116 14.2561 7.1869 14.2561 6.29295C14.2561 5.39899 13.5222 4.6743 12.6168 4.6743C11.7115 4.6743 10.9776 5.39899 10.9776 6.29295C10.9776 7.1869 11.7115 7.9116 12.6168 7.9116Z" fill="#A641F4"/>
</svg>
