<svg width="16" height="16" viewBox="0 0 16 16" fill="none" xmlns="http://www.w3.org/2000/svg">
<path d="M15.086 2.5729C15.086 2.49719 15.0128 2.44308 14.9409 2.46679C14.5085 2.60942 13.7418 2.89821 13.7418 3.24644V10.6563C13.347 10.5051 12.8877 10.4155 12.3977 10.4155C10.9134 10.4155 9.70926 11.2192 9.70926 12.2077C9.70926 13.1963 10.9134 14 12.3977 14C13.8819 14 15.086 13.1963 15.086 12.2077V2.5729Z" fill="#42A5F5"/>
<path d="M4.55652 2.6721C4.55652 2.51744 4.68189 2.39206 4.83656 2.39206H12.4817C12.6363 2.39206 12.7617 2.51744 12.7617 2.6721V4.12831C12.7617 4.28297 12.6363 4.40835 12.4817 4.40835H4.83656C4.68189 4.40835 4.55652 4.28297 4.55652 4.12831V2.6721Z" fill="#42A5F5"/>
<path d="M4.55652 7.15275C4.55652 6.99809 4.68189 6.87271 4.83656 6.87271H12.4817C12.6363 6.87271 12.7617 6.99809 12.7617 7.15275V8.60896C12.7617 8.76362 12.6363 8.889 12.4817 8.889H4.83656C4.68189 8.889 4.55652 8.76362 4.55652 8.60896V7.15275Z" fill="#42A5F5"/>
<path d="M4.55652 11.6334C4.55652 11.4787 4.68189 11.3534 4.83656 11.3534H8.53309C8.68776 11.3534 8.81313 11.4787 8.81313 11.6334V13.0896C8.81313 13.2443 8.68776 13.3697 8.53309 13.3697H4.83656C4.68189 13.3697 4.55652 13.2443 4.55652 13.0896V11.6334Z" fill="#42A5F5"/>
<path d="M3.80041 12.3615C3.80041 13.1348 3.17351 13.7617 2.4002 13.7617C1.62689 13.7617 1 13.1348 1 12.3615C1 11.5882 1.62689 10.9613 2.4002 10.9613C3.17351 10.9613 3.80041 11.5882 3.80041 12.3615Z" fill="#42A5F5"/>
<path d="M3.80041 7.88085C3.80041 8.65416 3.17351 9.28106 2.4002 9.28106C1.62689 9.28106 1 8.65416 1 7.88085C1 7.10754 1.62689 6.48065 2.4002 6.48065C3.17351 6.48065 3.80041 7.10754 3.80041 7.88085Z" fill="#42A5F5"/>
<path d="M3.80041 3.4002C3.80041 4.17351 3.17351 4.80041 2.4002 4.80041C1.62689 4.80041 1 4.17351 1 3.4002C1 2.62689 1.62689 2 2.4002 2C3.17351 2 3.80041 2.62689 3.80041 3.4002Z" fill="#42A5F5"/>
</svg>
