<svg width="16" height="16" viewBox="0 0 16 16" fill="none" xmlns="http://www.w3.org/2000/svg">
<g opacity="0.85">
<path fill-rule="evenodd" clip-rule="evenodd" d="M4.79 6.11C5.04 5.86 5.04 5.44 4.79 5.19C4.47 4.86 4.31 4.43 4.31 4C4.31 3.57 4.47 3.14 4.79 2.81C5.04 2.55 5.04 2.14 4.79 1.89C4.67 1.76 4.5 1.7 4.34 1.7C4.18 1.7 4.01 1.76 3.89 1.89C3.32 2.47 3.04 3.24 3.04 4C3.04 4.76 3.33 5.53 3.89 6.11C4.14 6.36 4.55 6.36 4.79 6.11V6.11ZM2.33 0.520002C2.2 0.390002 2.04 0.330002 1.87 0.330002C1.71 0.330002 1.54 0.390002 1.41 0.520002C0.480002 1.48 0.0100021 2.74 0.0100021 3.99C0.0100021 5.25 0.480002 6.51 1.41 7.47C1.66 7.73 2.07 7.73 2.32 7.47C2.57 7.21 2.57 6.79 2.32 6.53C1.64 5.83 1.3 4.91 1.3 3.99C1.3 3.07 1.64 2.15 2.32 1.45C2.58 1.2 2.58 0.780002 2.33 0.520002V0.520002ZM8.02 5.62C8.92 5.62 9.64 4.89 9.64 4C9.64 3.1 8.91 2.38 8.02 2.38C7.12 2.38 6.4 3.11 6.4 4C6.39 4.89 7.12 5.62 8.02 5.62V5.62ZM14.59 0.530002C14.34 0.270002 13.93 0.270002 13.68 0.530002C13.43 0.790002 13.43 1.21 13.68 1.47C14.36 2.17 14.7 3.09 14.7 4.01C14.7 4.93 14.36 5.84 13.68 6.55C13.43 6.81 13.43 7.23 13.68 7.49C13.81 7.62 13.97 7.68 14.14 7.68C14.3 7.68 14.47 7.62 14.6 7.49C15.53 6.53 16 5.27 16 4.01C15.99 2.75 15.52 1.49 14.59 0.530002V0.530002ZM8.02 6.92V6.92C7.61 6.92 7.19 6.82 6.82 6.62L3.67 14.99H5.16L6.02 13.99H10.02L10.86 14.99H12.35L9.21 6.62C8.83 6.82 8.43 6.92 8.02 6.92V6.92ZM8.01 7.4L9.02 11H7.02L8.01 7.4V7.4ZM6.02 12.99L7.02 11.99H9.02L10.02 12.99H6.02V12.99ZM11.21 1.89C10.96 2.14 10.96 2.56 11.21 2.81C11.53 3.14 11.69 3.57 11.69 4C11.69 4.43 11.53 4.86 11.21 5.19C10.96 5.45 10.96 5.86 11.21 6.11C11.33 6.24 11.5 6.3 11.66 6.3C11.82 6.3 11.98 6.24 12.11 6.11C12.68 5.53 12.96 4.76 12.96 4C12.96 3.24 12.68 2.47 12.11 1.89C11.86 1.64 11.45 1.64 11.21 1.89V1.89Z" fill="white"/>
</g>
</svg>
