<svg width="16" height="16" viewBox="0 0 16 16" fill="none" xmlns="http://www.w3.org/2000/svg">
<path d="M8 2C4.6879 2 2 4.6879 2 8C2 11.3121 4.6879 14 8 14C11.3121 14 14 11.3121 14 8C14 4.6879 11.3121 2 8 2ZM10.4363 10.8282C10.3347 10.8282 10.2718 10.7968 10.1774 10.7411C8.66774 9.83145 6.91129 9.79274 5.17661 10.1484C5.08226 10.1726 4.95887 10.2113 4.88871 10.2113C4.65403 10.2113 4.50645 10.025 4.50645 9.82903C4.50645 9.57984 4.65403 9.46129 4.83548 9.42258C6.81694 8.98468 8.84194 9.02339 10.5694 10.0565C10.7169 10.1508 10.804 10.2355 10.804 10.4556C10.804 10.6758 10.6323 10.8282 10.4363 10.8282ZM11.0871 9.24113C10.9613 9.24113 10.8766 9.18548 10.7895 9.13952C9.27742 8.24435 7.02258 7.88387 5.01694 8.42823C4.90081 8.45968 4.8379 8.49113 4.72903 8.49113C4.47016 8.49113 4.25968 8.28064 4.25968 8.02177C4.25968 7.7629 4.38548 7.59113 4.63468 7.52097C5.30726 7.33226 5.99435 7.19194 7.00081 7.19194C8.57097 7.19194 10.0879 7.58145 11.2831 8.29274C11.479 8.40887 11.5565 8.55887 11.5565 8.76935C11.554 9.03064 11.3508 9.24113 11.0871 9.24113ZM11.8371 7.39758C11.7113 7.39758 11.6339 7.36613 11.525 7.30323C9.80242 6.275 6.72258 6.02823 4.72903 6.58468C4.64194 6.60887 4.53306 6.64758 4.41694 6.64758C4.09758 6.64758 3.85323 6.39839 3.85323 6.07661C3.85323 5.74758 4.05645 5.56129 4.27419 5.49839C5.12581 5.24919 6.07903 5.13065 7.11694 5.13065C8.88306 5.13065 10.7339 5.49839 12.0863 6.2871C12.275 6.39597 12.3984 6.54597 12.3984 6.83387C12.3984 7.1629 12.1323 7.39758 11.8371 7.39758Z" fill="url(#paint0_linear)"/>
<defs>
<linearGradient id="paint0_linear" x1="8" y1="2" x2="8" y2="14" gradientUnits="userSpaceOnUse">
<stop stop-color="#6879F5"/>
<stop offset="1" stop-color="#976AF7"/>
</linearGradient>
</defs>
</svg>
