<svg width="12" height="12" viewBox="0 0 12 12" fill="none" xmlns="http://www.w3.org/2000/svg">
<path opacity="0.85" d="M5.98164 0C2.67814 0 0 2.67807 0 5.98157C0 9.28521 2.67814 11.9631 5.98164 11.9631C9.2855 11.9631 11.9634 9.28521 11.9634 5.98157C11.9634 2.67828 9.2855 0.000285713 5.98157 0.000285713L5.98164 0V0ZM8.72479 8.62714C8.61764 8.80285 8.38764 8.85857 8.21193 8.75071C6.8075 7.89286 5.0395 7.69857 2.95736 8.17428C2.75671 8.22 2.55671 8.09428 2.511 7.89357C2.46507 7.69286 2.59029 7.49286 2.79143 7.44714C5.07 6.92636 7.0245 7.15071 8.60121 8.11428C8.77693 8.22214 8.83264 8.45143 8.72479 8.62714V8.62714ZM9.45693 6.99821C9.32193 7.21786 9.03479 7.28714 8.8155 7.15214C7.20764 6.16364 4.75671 5.87743 2.85493 6.45471C2.60829 6.52921 2.34779 6.39021 2.27293 6.144C2.19864 5.89736 2.33771 5.63736 2.58393 5.56236C4.75629 4.90321 7.45693 5.2225 9.30336 6.35714C9.52264 6.49214 9.59193 6.77928 9.45693 6.99828V6.99821ZM9.51978 5.30221C7.59193 4.15714 4.41121 4.05186 2.57057 4.6105C2.275 4.70014 1.96243 4.53328 1.87286 4.23771C1.78329 3.942 1.95 3.62964 2.24579 3.53978C4.35871 2.89836 7.87121 3.02228 10.0908 4.33993C10.3572 4.49771 10.4444 4.84107 10.2865 5.10657C10.1294 5.37243 9.78507 5.46007 9.52007 5.30221H9.51978Z" fill="white"/>
</svg>
