<svg width="16" height="16" viewBox="0 0 16 16" fill="none" xmlns="http://www.w3.org/2000/svg">
<path d="M13.2467 11.457L10.4998 7.03906V3.5H10.6873C10.999 3.5 11.2498 3.24922 11.2498 2.9375V2.5625C11.2498 2.25078 10.999 2 10.6873 2H5.81228C5.50056 2 5.24978 2.25078 5.24978 2.5625V2.9375C5.24978 3.24922 5.50056 3.5 5.81228 3.5H5.99978V7.03906L3.25291 11.457C2.56619 12.5609 3.35837 14 4.6615 14H11.8381C13.1435 14 13.9334 12.5586 13.2467 11.457ZM6.23181 9.5L7.3615 7.68125C7.44822 7.55937 7.49744 7.40938 7.49744 7.25V3.5H8.99744V7.25C8.99744 7.41172 9.049 7.55937 9.13338 7.68125L10.2631 9.5H6.23181Z" fill="#42A5F5"/>
</svg>
