<svg width="16" height="16" viewBox="0 0 16 16" fill="none" xmlns="http://www.w3.org/2000/svg">
<path fill-rule="evenodd" clip-rule="evenodd" d="M5.58724 6.33771C5.77486 6.15009 5.77486 5.8349 5.58724 5.64728C5.34709 5.39962 5.22702 5.07692 5.22702 4.75422C5.22702 4.43152 5.34709 4.10882 5.58724 3.86116C5.77486 3.66604 5.77486 3.35835 5.58724 3.17073C5.49719 3.07317 5.36961 3.02814 5.24953 3.02814C5.12946 3.02814 5.00188 3.07317 4.91182 3.17073C4.48405 3.606 4.27392 4.18386 4.27392 4.75422C4.27392 5.32458 4.49156 5.90244 4.91182 6.33771C5.09944 6.52533 5.40713 6.52533 5.58724 6.33771V6.33771ZM3.74109 2.14259C3.64353 2.04503 3.52345 2 3.39587 2C3.2758 2 3.14822 2.04503 3.05066 2.14259C2.35272 2.86304 2 3.80863 2 4.74672C2 5.69231 2.35272 6.6379 3.05066 7.35835C3.23827 7.55347 3.54597 7.55347 3.73358 7.35835C3.9212 7.16323 3.9212 6.84803 3.73358 6.65291C3.22326 6.12758 2.96811 5.43715 2.96811 4.74672C2.96811 4.05629 3.22326 3.36585 3.73358 2.84053C3.92871 2.65291 3.92871 2.33771 3.74109 2.14259V2.14259ZM8.01126 5.96998C8.68668 5.96998 9.22702 5.42214 9.22702 4.75422C9.22702 4.0788 8.67917 3.53846 8.01126 3.53846C7.33584 3.53846 6.7955 4.0863 6.7955 4.75422C6.78799 5.42214 7.33584 5.96998 8.01126 5.96998V5.96998ZM12.9418 2.15009C12.7542 1.95497 12.4465 1.95497 12.2589 2.15009C12.0713 2.34522 12.0713 2.66041 12.2589 2.85553C12.7692 3.38086 13.0244 4.07129 13.0244 4.76173C13.0244 5.45216 12.7692 6.13508 12.2589 6.66792C12.0713 6.86304 12.0713 7.17824 12.2589 7.37336C12.3565 7.47092 12.4765 7.51595 12.6041 7.51595C12.7242 7.51595 12.8518 7.47092 12.9493 7.37336C13.6473 6.65291 14 5.70732 14 4.76173C13.9925 3.81614 13.6398 2.87054 12.9418 2.15009V2.15009ZM8.01126 6.94559V6.94559C7.70356 6.94559 7.38837 6.87054 7.11069 6.72045L4.74672 13.0019H5.86492L6.51032 12.2514H9.51219L10.1426 13.0019H11.2608L8.90432 6.72045C8.61914 6.87054 8.31895 6.94559 8.01126 6.94559V6.94559ZM8.00375 7.30582L8.76173 10.0075H7.26079L8.00375 7.30582V7.30582ZM6.51032 11.5009L7.26079 10.7505H8.76173L9.51219 11.5009H6.51032V11.5009ZM10.4053 3.17073C10.2176 3.35835 10.2176 3.67355 10.4053 3.86116C10.6454 4.10882 10.7655 4.43152 10.7655 4.75422C10.7655 5.07692 10.6454 5.39962 10.4053 5.64728C10.2176 5.8424 10.2176 6.15009 10.4053 6.33771C10.4953 6.43527 10.6229 6.4803 10.743 6.4803C10.863 6.4803 10.9831 6.43527 11.0807 6.33771C11.5084 5.90244 11.7186 5.32458 11.7186 4.75422C11.7186 4.18386 11.5084 3.606 11.0807 3.17073C10.8931 2.98311 10.5854 2.98311 10.4053 3.17073V3.17073Z" fill="#009688"/>
</svg>
