<svg width="16" height="16" viewBox="0 0 16 16" fill="none" xmlns="http://www.w3.org/2000/svg">
<path d="M12.0835 14.5H11.2024C11.057 14.5 10.9381 14.3828 10.9381 14.2396L10.9381 5.47222H10.7619C10.4689 5.47222 10.2332 5.24002 10.2332 4.95139V4.60417C10.2332 4.31554 10.4689 4.08333 10.7619 4.08333H10.9381V2.26042C10.9381 2.11719 11.057 2 11.2024 2L12.0835 2C12.2289 2 12.3478 2.11719 12.3478 2.26042V4.08333H12.5241C12.817 4.08333 13.0527 4.31554 13.0527 4.60417V4.95139C13.0527 5.24002 12.817 5.47222 12.5241 5.47222H12.3478L12.3478 14.2396C12.3478 14.3828 12.2289 14.5 12.0835 14.5ZM8.82341 14.2396L8.82341 12.4167H8.99963C9.2926 12.4167 9.5283 12.1845 9.5283 11.8958V11.5486C9.5283 11.26 9.2926 11.0278 8.99963 11.0278H8.82341L8.82341 2.26042C8.82341 2.11719 8.70446 2 8.55908 2H7.67797C7.53259 2 7.41364 2.11719 7.41364 2.26042L7.41364 11.0278H7.23741C6.94445 11.0278 6.70875 11.26 6.70875 11.5486V11.8958C6.70875 12.1845 6.94445 12.4167 7.23741 12.4167H7.41364L7.41364 14.2396C7.41364 14.3828 7.53259 14.5 7.67797 14.5L8.55908 14.5C8.70446 14.5 8.82341 14.3828 8.82341 14.2396ZM5.29897 14.2396L5.29897 8.25H5.4752C5.76816 8.25 6.00386 8.01779 6.00386 7.72917V7.38194C6.00386 7.09332 5.76816 6.86111 5.4752 6.86111H5.29897L5.29897 2.26042C5.29897 2.11719 5.18002 2 5.03464 2H4.15353C4.00815 2 3.8892 2.11719 3.8892 2.26042L3.8892 6.86111H3.71298C3.42001 6.86111 3.18431 7.09332 3.18431 7.38194V7.72917C3.18431 8.01779 3.42001 8.25 3.71298 8.25H3.8892V14.2396C3.8892 14.3828 4.00815 14.5 4.15353 14.5H5.03464C5.18002 14.5 5.29897 14.3828 5.29897 14.2396Z" fill="url(#paint0_linear)"/>
<defs>
<linearGradient id="paint0_linear" x1="13.0527" y1="8.25" x2="3.18431" y2="8.25" gradientUnits="userSpaceOnUse">
<stop stop-color="#6879F5"/>
<stop offset="1" stop-color="#976AF7"/>
</linearGradient>
</defs>
</svg>
