<svg width="12" height="14" viewBox="0 0 12 14" fill="none" xmlns="http://www.w3.org/2000/svg">
<g opacity="0.85">
<path fill-rule="evenodd" clip-rule="evenodd" d="M12 7.51714V6.14571L10.3371 5.59714L9.95143 4.66285L10.7057 3.08571L9.73714 2.11714L8.18571 2.89714L7.25143 2.51142L6.66 0.865707H5.28857L4.74857 2.52856L3.79714 2.91428L2.22 2.15999L1.25143 3.12856L2.03143 4.67999L1.64571 5.61428L0 6.19714V7.55999L1.66286 8.10856L2.04857 9.04285L1.29429 10.62L2.26286 11.5886L3.81429 10.8086L4.74857 11.1943L5.34 12.84H6.70286L7.24286 11.1771L8.19429 10.7914L9.77143 11.5457L10.74 10.5771L9.95143 9.02571L10.3543 8.09142L12 7.49999V7.51714ZM6 9.42856C4.57714 9.42856 3.42857 8.27999 3.42857 6.85714C3.42857 5.43428 4.57714 4.28571 6 4.28571C7.42286 4.28571 8.57143 5.43428 8.57143 6.85714C8.57143 8.27999 7.42286 9.42856 6 9.42856V9.42856Z" fill="black"/>
</g>
</svg>
