<?xml version="1.0" encoding="utf-8"?>
<!-- Generator: Adobe Illustrator 23.0.4, SVG Export Plug-In . SVG Version: 6.00 Build 0)  -->
<svg version="1.1" id="Capa_1" xmlns="http://www.w3.org/2000/svg" xmlns:xlink="http://www.w3.org/1999/xlink" x="0px" y="0px" viewBox="0 0 28 28" style="enable-background:new 0 0 28 28;" xml:space="preserve">
<style type="text/css">
	.st0{fill:none;stroke:#000000;stroke-width:1.4088;stroke-miterlimit:10;}
</style>
<g>
	<g>
		<path d="M6.1,15.1v9.6c0,0.6,0.5,1,1,1c0.6,0,1-0.5,1-1v-9.6c0-0.6-0.5-1-1-1C6.6,14.1,6.1,14.6,6.1,15.1z"/>
		<path d="M2.9,25.8h2.3V14.4c0-0.1,0-0.1,0-0.2c0-4.9,4-8.9,8.8-8.9c4.9,0,8.8,4,8.8,8.9c0,0.1,0,0.1,0,0.2v11.3h2.3 c1.6,0,2.9-1.3,2.9-3v-5.9c0-1.4-0.9-2.5-2.1-2.8C25.8,7.5,20.5,2.2,14,2.2C7.5,2.2,2.2,7.5,2.1,14C0.9,14.4,0,15.5,0,16.9v5.9 C0,24.4,1.3,25.8,2.9,25.8z"/>
		<path d="M19.8,15.1v9.6c0,0.6,0.5,1,1,1c0.6,0,1-0.5,1-1v-9.6c0-0.6-0.5-1-1-1C20.3,14.1,19.8,14.6,19.8,15.1z"/>
	</g>
</g>
<g>
	<path d="M-24.4-15.8L-24.4-15.8c-0.2,0-0.3-0.2-0.3-0.4l0.4-3.9c0-0.2,0.2-0.3,0.4-0.3l0,0c0.4,0,0.7,0.4,0.7,0.9l-0.3,3.1 C-23.6-16-24-15.7-24.4-15.8z"/>
	<path d="M-26.3-16l-0.5-0.1c-0.3,0-0.6-0.3-0.5-0.7l0.4-3.5c0-0.3,0.3-0.5,0.6-0.5l0.6,0.1L-26.3-16z"/>
	<path class="st0" d="M-34.6-15.8l-0.6-5.6c0-3,2.4-5.4,5.4-5.4s5.4,2.4,5.4,5.4l-0.6,5.6"/>
	<path d="M-35.3-15.8L-35.3-15.8c0.2,0,0.3-0.2,0.3-0.4l-0.4-3.9c0-0.2-0.2-0.3-0.4-0.3h0c-0.4,0-0.7,0.4-0.7,0.9l0.3,3.1 C-36.1-16-35.7-15.7-35.3-15.8z"/>
	<path d="M-33.4-16l0.5-0.1c0.3,0,0.6-0.3,0.5-0.7l-0.4-3.5c0-0.3-0.3-0.5-0.6-0.5l-0.6,0.1L-33.4-16z"/>
</g>
</svg>
