<svg width="8" height="16" viewBox="0 0 8 16" fill="none" xmlns="http://www.w3.org/2000/svg">
<path d="M192 384C192 419.346 163.346 448 128 448C92.6537 448 63.9997 419.346 63.9997 384C63.9997 360.315 76.8757 339.651 95.9997 328.583V224C95.9997 206.327 110.327 192 128 192C145.673 192 160 206.327 160 224V328.583C179.124 339.651 192 360.315 192 384ZM224 299.347C243.912 321.91 256 351.541 256 384C256 454.696 198.697 512 128 512C127.701 512 127.391 511.999 127.091 511.997C56.7887 511.509 -0.357318 453.636 0.00168226 383.333C0.165682 351.135 12.2247 321.755 31.9997 299.347V96C31.9997 42.981 74.9807 0 128 0C181.019 0 224 42.981 224 96V299.347ZM208 384C208 349.661 188.63 331.81 176 317.498V96C176 69.533 154.467 48 128 48C101.533 48 79.9997 69.533 79.9997 96V317.498C67.2677 331.926 48.1747 349.598 48.0007 383.578C47.7767 427.454 83.5637 463.694 127.424 463.998L128 464C172.112 464 208 428.112 208 384Z" fill="black"/>
</svg>
