<svg width="16" height="16" viewBox="0 0 16 16" fill="none" xmlns="http://www.w3.org/2000/svg">
<path d="M5.02738 3.5721C5.02738 3.44045 5.13411 3.33373 5.26576 3.33373H11.7734C11.9051 3.33373 12.0118 3.44045 12.0118 3.5721V4.81166C12.0118 4.94331 11.9051 5.05004 11.7734 5.05004H5.26576C5.13411 5.05004 5.02738 4.94331 5.02738 4.81166V3.5721Z" fill="#297845"/>
<path d="M5.02738 7.38613C5.02738 7.25448 5.13411 7.14775 5.26576 7.14775H11.7734C11.9051 7.14775 12.0118 7.25448 12.0118 7.38613V8.62569C12.0118 8.75734 11.9051 8.86407 11.7734 8.86407H5.26576C5.13411 8.86407 5.02738 8.75734 5.02738 8.62569V7.38613Z" fill="#297845"/>
<path d="M5.02738 11.2002C5.02738 11.0685 5.13411 10.9618 5.26576 10.9618H8.41233C8.54398 10.9618 8.65071 11.0685 8.65071 11.2002V12.4397C8.65071 12.5714 8.54398 12.6781 8.41233 12.6781H5.26576C5.13411 12.6781 5.02738 12.5714 5.02738 12.4397V11.2002Z" fill="#297845"/>
<path d="M4.38377 11.8199C4.38377 12.4782 3.85014 13.0118 3.19188 13.0118C2.53362 13.0118 2 12.4782 2 11.8199C2 11.1617 2.53362 10.6281 3.19188 10.6281C3.85014 10.6281 4.38377 11.1617 4.38377 11.8199Z" fill="#297845"/>
<path d="M4.38377 8.00591C4.38377 8.66417 3.85014 9.19779 3.19188 9.19779C2.53362 9.19779 2 8.66417 2 8.00591C2 7.34765 2.53362 6.81403 3.19188 6.81403C3.85014 6.81403 4.38377 7.34765 4.38377 8.00591Z" fill="#297845"/>
<path d="M4.38377 4.19188C4.38377 4.85014 3.85014 5.38377 3.19188 5.38377C2.53362 5.38377 2 4.85014 2 4.19188C2 3.53362 2.53362 3 3.19188 3C3.85014 3 4.38377 3.53362 4.38377 4.19188Z" fill="#297845"/>
<path d="M14.0002 3.66609C14.0002 3.60164 13.9378 3.55558 13.8766 3.57577C13.5085 3.69718 12.856 3.943 12.856 4.23942V10.5469C12.5199 10.4181 12.1289 10.3419 11.7118 10.3419C10.4484 10.3419 9.42334 11.026 9.42334 11.8675C9.42334 12.7089 10.4484 13.3931 11.7118 13.3931C12.9752 13.3931 14.0002 12.7089 14.0002 11.8675V3.66609Z" fill="#1DB954"/>
</svg>
