<svg width="16" height="16" viewBox="0 0 16 16" fill="none" xmlns="http://www.w3.org/2000/svg">
<path d="M7.33333 4.72044V11.7197C7.33333 12.1663 6.79285 12.3863 6.47977 12.0733L4.62623 10.2201H2.5C2.22385 10.2201 2 9.99623 2 9.72009V6.72009C2 6.44394 2.22385 6.22009 2.5 6.22009H4.62623L6.47979 4.36688C6.7925 4.05417 7.33333 4.27334 7.33333 4.72044ZM11.1262 3.09803C10.8121 2.90592 10.4017 3.00484 10.2096 3.31894C10.0175 3.63305 10.1164 4.0434 10.4305 4.2355C11.7701 5.05473 12.6667 6.53223 12.6667 8.22009C12.6667 9.7499 11.9151 11.1845 10.6561 12.0577C10.3536 12.2675 10.2784 12.6829 10.4883 12.9855C10.6982 13.2881 11.1136 13.3631 11.416 13.1533C13.034 12.0311 14 10.1869 14 8.22009C14 6.06917 12.8629 4.16015 11.1262 3.09803ZM12 8.22009C12 6.79203 11.2469 5.5164 10.0842 4.80548C9.77015 4.6134 9.35977 4.71234 9.16769 5.02646C8.9756 5.34059 9.07454 5.75092 9.38867 5.94301C10.1889 6.43234 10.6667 7.28359 10.6667 8.22009C10.6667 9.09434 10.2371 9.91423 9.51754 10.4133C9.21502 10.6232 9.13988 11.0385 9.34971 11.3411C9.47921 11.5278 9.6869 11.6279 9.89808 11.6279C10.0337 11.6279 10.1661 11.5864 10.2775 11.5089C11.3561 10.7608 12 9.5313 12 8.22009ZM10 8.22009C10 7.51765 9.64196 6.87946 9.04225 6.51292C8.7281 6.32096 8.31777 6.41994 8.12575 6.73409C7.93373 7.04823 8.03275 7.45857 8.3469 7.65059C8.54715 7.77296 8.66667 7.98586 8.66667 8.22009C8.6666 8.32795 8.64041 8.43419 8.59034 8.52973C8.54026 8.62527 8.46779 8.70725 8.37913 8.76867C8.07654 8.97844 8.00129 9.3938 8.21106 9.69638C8.42085 9.99898 8.83623 10.0742 9.13877 9.86444C9.67804 9.49057 10 8.87588 10 8.22009Z" fill="#42A5F5"/>
</svg>
