<svg width="16" height="16" viewBox="0 0 16 16" fill="none" xmlns="http://www.w3.org/2000/svg">
<path d="M8 2C4.68628 2 2 4.68628 2 8C2 11.3137 4.68628 14 8 14C11.3137 14 14 11.3137 14 8C14 4.68628 11.3137 2 8 2ZM8 3.16129C10.6723 3.16129 12.8387 5.32765 12.8387 8C12.8387 8.89473 12.5956 9.73252 12.1722 10.4515C12.0011 9.8359 11.5513 9.14 10.6255 8.86985C10.9324 8.38182 11.0968 7.81647 11.0968 7.22581C11.0968 5.51559 9.71317 4.12903 8 4.12903C6.28978 4.12903 4.90323 5.51266 4.90323 7.22581C4.90323 7.81647 5.06757 8.38185 5.37447 8.86985C4.44788 9.14022 3.99844 9.83549 3.82758 10.4512C3.40434 9.73228 3.16129 8.89458 3.16129 8C3.16129 5.32765 5.32765 3.16129 8 3.16129ZM9.93548 7.22581C9.93548 8.29475 9.06894 9.16129 8 9.16129C6.93106 9.16129 6.06452 8.29475 6.06452 7.22581C6.06452 6.15686 6.93106 5.29032 8 5.29032C9.06894 5.29032 9.93548 6.15686 9.93548 7.22581ZM4.90323 11.7178V11.0462C4.90323 10.5524 5.23056 10.1185 5.70539 9.98281L6.29755 9.81362C6.7986 10.1447 7.3856 10.3226 8 10.3226C8.6144 10.3226 9.2014 10.1447 9.70248 9.8136L10.2946 9.98278C10.7694 10.1185 11.0968 10.5524 11.0968 11.0462V11.7178C10.2576 12.4175 9.17806 12.8387 8 12.8387C6.82194 12.8387 5.74238 12.4175 4.90323 11.7178Z" fill="url(#paint0_linear)"/>
<defs>
<linearGradient id="paint0_linear" x1="8" y1="2" x2="8" y2="14" gradientUnits="userSpaceOnUse">
<stop stop-color="#6879F5"/>
<stop offset="1" stop-color="#976AF7"/>
</linearGradient>
</defs>
</svg>
