<svg width="16" height="16" viewBox="0 0 16 16" fill="none" xmlns="http://www.w3.org/2000/svg">
<g opacity="0.85">
<path d="M1.875 8L13.25 1.875V4.02168L5.66667 8L13.25 11.9783V14.125L1.875 8Z" fill="black"/>
<path d="M15 3.625C15 5.07475 13.8247 6.25 12.375 6.25C10.9253 6.25 9.75 5.07475 9.75 3.625C9.75 2.17525 10.9253 1 12.375 1C13.8247 1 15 2.17525 15 3.625Z" fill="black"/>
<path d="M6.25 8C6.25 9.44975 5.07475 10.625 3.625 10.625C2.17525 10.625 1 9.44975 1 8C1 6.55025 2.17525 5.375 3.625 5.375C5.07475 5.375 6.25 6.55025 6.25 8Z" fill="black"/>
<path d="M15 12.375C15 13.8247 13.8247 15 12.375 15C10.9253 15 9.75 13.8247 9.75 12.375C9.75 10.9253 10.9253 9.75 12.375 9.75C13.8247 9.75 15 10.9253 15 12.375Z" fill="black"/>
</g>
</svg>
