<svg width="16" height="16" viewBox="0 0 16 16" fill="none" xmlns="http://www.w3.org/2000/svg">
<path d="M6.01691 11.7316L3.87448 13.8745C3.70712 14.0419 3.43565 14.0418 3.2684 13.8745L1.12603 11.7316C0.856297 11.4619 1.0484 11 1.42908 11H2.71429V2.42857C2.71429 2.19187 2.90615 2 3.14286 2H4C4.2367 2 4.42857 2.19187 4.42857 2.42857V11H5.71385C6.09531 11 6.28608 11.4624 6.01691 11.7316ZM7.42857 3.71428H14.2857C14.5224 3.71428 14.7143 3.52242 14.7143 3.28571V2.42857C14.7143 2.19187 14.5224 2 14.2857 2H7.42857C7.19186 2 7 2.19187 7 2.42857V3.28571C7 3.52242 7.19186 3.71428 7.42857 3.71428ZM7 6.71428V5.85714C7 5.62043 7.19186 5.42857 7.42857 5.42857H12.5714C12.8081 5.42857 13 5.62043 13 5.85714V6.71428C13 6.95099 12.8081 7.14285 12.5714 7.14285H7.42857C7.19186 7.14285 7 6.95099 7 6.71428ZM7 13.5714V12.7143C7 12.4776 7.19186 12.2857 7.42857 12.2857H9.14285C9.37956 12.2857 9.57142 12.4776 9.57142 12.7143V13.5714C9.57142 13.8081 9.37956 14 9.14285 14H7.42857C7.19186 14 7 13.8081 7 13.5714ZM7 10.1428V9.28571C7 9.049 7.19186 8.85714 7.42857 8.85714H10.8571C11.0938 8.85714 11.2857 9.049 11.2857 9.28571V10.1428C11.2857 10.3796 11.0938 10.5714 10.8571 10.5714H7.42857C7.19186 10.5714 7 10.3796 7 10.1428Z" fill="#4F5258"/>
</svg>
