<svg width="12" height="12" viewBox="0 0 12 12" fill="none" xmlns="http://www.w3.org/2000/svg">
<path d="M5.99972 0.0197754C2.69622 0.0197754 0.018074 2.69785 0.018074 6.00134C0.018074 9.30499 2.69622 11.9828 5.99972 11.9828C9.30357 11.9828 11.9814 9.30499 11.9814 6.00134C11.9814 2.69806 9.30357 0.0200611 5.99965 0.0200611L5.99972 0.0197754V0.0197754ZM8.74286 8.64692C8.63572 8.82263 8.40572 8.87834 8.23 8.77049C6.82557 7.91263 5.05757 7.71834 2.97543 8.19406C2.77479 8.23977 2.57479 8.11406 2.52907 7.91334C2.48315 7.71263 2.60836 7.51263 2.8095 7.46692C5.08807 6.94613 7.04257 7.17049 8.61929 8.13406C8.795 8.24192 8.85072 8.4712 8.74286 8.64692V8.64692ZM9.475 7.01799C9.34 7.23763 9.05286 7.30692 8.83357 7.17192C7.22572 6.18342 4.77479 5.8972 2.873 6.47449C2.62636 6.54899 2.36586 6.40999 2.291 6.16377C2.21672 5.91713 2.35579 5.65713 2.602 5.58213C4.77436 4.92299 7.475 5.24227 9.32143 6.37692C9.54072 6.51192 9.61 6.79906 9.475 7.01806V7.01799ZM9.53786 5.32199C7.61 4.17692 4.42929 4.07163 2.58865 4.63027C2.29307 4.71992 1.9805 4.55306 1.89093 4.25749C1.80136 3.96177 1.96807 3.64942 2.26386 3.55956C4.37679 2.91813 7.88929 3.04206 10.1089 4.3597C10.3753 4.51749 10.4624 4.86085 10.3046 5.12635C10.1474 5.3922 9.80314 5.47985 9.53814 5.32199H9.53786Z" fill="#1DB954"/>
</svg>
