<?xml version="1.0" encoding="iso-8859-1"?>
<!-- Generator: Adobe Illustrator 19.0.0, SVG Export Plug-In . SVG Version: 6.00 Build 0)  -->
<svg version="1.1" id="Layer_1" xmlns="http://www.w3.org/2000/svg" xmlns:xlink="http://www.w3.org/1999/xlink" x="0px" y="0px"
	  width="28px" height="28px" viewBox="0 0 504.124 504.124" style="enable-background:new 0 0 504.124 504.124;" xml:space="preserve">
<path style="fill:#324D5B;" d="M252.062,15.753c-121.698,0-220.554,98.855-220.554,220.554v78.769h23.631v-76.012
	c0-110.277,88.222-199.68,196.923-199.68s196.923,89.403,196.923,199.68v76.012h23.631v-78.769
	C472.615,114.608,373.76,15.753,252.062,15.753z"/>
<path style="fill:#26A6D1;" d="M80.345,291.445C35.84,291.445,0,326.891,0,370.214s35.84,78.769,80.345,78.769
	c26.782,0,22.055-78.769,22.055-78.769S107.126,291.445,80.345,291.445z M421.022,291.445c-27.175,0-22.843,78.769-22.843,78.769
	s-5.514,78.769,22.843,78.769c46.08,0,83.102-35.446,83.102-78.769S466.708,291.445,421.022,291.445z"/>
<path style="fill:#208DB2;" d="M421.415,448.984c12.603,0,24.812-2.757,35.446-7.877V299.322
	c-10.634-4.726-22.843-7.877-35.446-7.877L421.415,448.984L421.415,448.984z M47.262,441.894c10.24,4.332,21.268,7.089,33.083,7.089
	c0.788,0,1.575,0,2.363-0.394v-156.75l-2.363-0.394c-11.815,0-22.843,2.363-33.083,7.089V441.894L47.262,441.894z"/>
<path style="fill:#E4E7E7;" d="M126.031,252.061c-25.994,0-47.262,21.268-47.262,47.262v141.785
	c0,25.994,21.268,47.262,47.262,47.262s47.262-21.268,47.262-47.262V299.322C173.292,273.328,152.025,252.061,126.031,252.061z
	 M378.092,252.061c-25.994,0-47.262,21.268-47.262,47.262v141.785c0,25.994,21.268,47.262,47.262,47.262
	s47.262-21.268,47.262-47.262V299.322C425.354,273.328,404.086,252.061,378.092,252.061z"/>
<path style="fill:#EBEDED;" d="M173.292,441.107V299.322c0-25.994-21.268-47.262-47.262-47.262v236.308
	C152.025,488.368,173.292,467.101,173.292,441.107z M330.831,299.322v141.785c0,25.994,21.268,47.262,47.262,47.262V252.061
	C352.098,252.061,330.831,273.328,330.831,299.322z"/>
<g>
</g>
<g>
</g>
<g>
</g>
<g>
</g>
<g>
</g>
<g>
</g>
<g>
</g>
<g>
</g>
<g>
</g>
<g>
</g>
<g>
</g>
<g>
</g>
<g>
</g>
<g>
</g>
<g>
</g>
</svg>
