<svg width="16" height="16" viewBox="0 0 16 16" fill="none" xmlns="http://www.w3.org/2000/svg">
<path d="M8 2C4.68548 2 2 4.68548 2 8C2 11.3145 4.68548 14 8 14C11.3145 14 14 11.3145 14 8C14 4.68548 11.3145 2 8 2ZM10.9419 9.575C11.0556 9.68871 11.0556 9.87258 10.9419 9.98629L9.98387 10.9419C9.87016 11.0556 9.68629 11.0556 9.57258 10.9419L8 9.35484L6.425 10.9419C6.31129 11.0556 6.12742 11.0556 6.01371 10.9419L5.05806 9.98387C4.94435 9.87016 4.94435 9.68629 5.05806 9.57258L6.64516 8L5.05806 6.425C4.94435 6.31129 4.94435 6.12742 5.05806 6.01371L6.01613 5.05565C6.12984 4.94194 6.31371 4.94194 6.42742 5.05565L8 6.64516L9.575 5.05806C9.68871 4.94435 9.87258 4.94435 9.98629 5.05806L10.9444 6.01613C11.0581 6.12984 11.0581 6.31371 10.9444 6.42742L9.35484 8L10.9419 9.575Z" fill="#42A5F5"/>
</svg>
