<svg width="16" height="17" viewBox="0 0 16 17" fill="none" xmlns="http://www.w3.org/2000/svg">
<path d="M15.7868 0.596996C15.7462 0.406332 15.5962 0.256302 15.4055 0.215669C14.399 0 13.6114 0 12.8268 0C9.60119 0 7.66642 1.72535 6.22238 4.00081H2.96547C2.3966 4.00081 1.87775 4.32275 1.62457 4.82911L0.0805075 7.91723C-0.169543 8.41733 0.19303 9.00183 0.752519 9.00183H3.725C3.54058 9.40191 3.35305 9.79886 3.16238 10.1802C3.06549 10.374 3.103 10.6053 3.25615 10.7584L5.24406 12.7463C5.39721 12.8995 5.62851 12.937 5.8223 12.8401C6.20363 12.6494 6.60058 12.465 7.00066 12.2806V15.2531C7.00066 15.8095 7.58828 16.172 8.08526 15.9251L11.1703 14.381C11.6797 14.1279 11.9986 13.6059 11.9986 13.0401V9.77698C14.2678 8.32982 15.9994 6.3888 15.9994 3.17877C16.0025 2.39111 16.0025 1.60345 15.7868 0.596996V0.596996ZM12.5018 5.00102C11.6735 5.00102 11.0015 4.329 11.0015 3.50071C11.0015 2.67242 11.6735 2.00041 12.5018 2.00041C13.3301 2.00041 14.0021 2.67242 14.0021 3.50071C14.0021 4.329 13.3301 5.00102 12.5018 5.00102Z" fill="white" fill-opacity="0.85"/>
</svg>
