<svg width="16" height="16" viewBox="0 0 16 16" fill="none" xmlns="http://www.w3.org/2000/svg">
<path fill-rule="evenodd" clip-rule="evenodd" d="M13.7659 12.64L10.7164 9.576C11.2766 8.792 11.6048 7.84 11.6048 6.8C11.6048 4.152 9.45173 2 6.8024 2C4.15308 2 2 4.152 2 6.8C2 9.448 4.15308 11.6 6.8024 11.6C7.84292 11.6 8.78739 11.272 9.57979 10.712L12.6453 13.76C12.7974 13.92 13.0055 14 13.2056 14C13.4057 14 13.6218 13.928 13.7659 13.76C14.078 13.448 14.078 12.944 13.7659 12.632V12.64ZM6.80187 10.56C4.72883 10.56 3.03999 8.87204 3.03999 6.80004C3.03999 4.72804 4.72883 3.04004 6.80187 3.04004C8.8749 3.04004 10.5637 4.72804 10.5637 6.80004C10.5637 8.87204 8.8749 10.56 6.80187 10.56V10.56Z" fill="url(#paint0_linear)"/>
<defs>
<linearGradient id="paint0_linear" x1="8" y1="2" x2="8" y2="14" gradientUnits="userSpaceOnUse">
<stop stop-color="#6879F5"/>
<stop offset="1" stop-color="#976AF7"/>
</linearGradient>
</defs>
</svg>
