<svg width="16" height="16" viewBox="0 0 16 16" fill="none" xmlns="http://www.w3.org/2000/svg">
<path d="M7.99996 2C4.68635 2 2 4.68634 2 8.00004C2 11.3139 4.68635 14 7.99996 14C11.3139 14 14 11.3139 14 8.00004C14 4.68655 11.3139 2.00029 7.99989 2.00029L7.99996 2ZM10.7515 10.6538C10.644 10.83 10.4133 10.8859 10.2371 10.7777C8.82835 9.91722 7.05494 9.72234 4.96642 10.1995C4.76516 10.2454 4.56455 10.1193 4.51869 9.91794C4.47262 9.7166 4.59822 9.51599 4.79998 9.47013C7.08553 8.94774 9.04602 9.17279 10.6276 10.1393C10.8038 10.2475 10.8597 10.4775 10.7515 10.6538ZM11.4859 9.01982C11.3505 9.24014 11.0625 9.30964 10.8425 9.17422C9.22972 8.18267 6.77128 7.89557 4.86367 8.47464C4.61627 8.54937 4.35498 8.40994 4.27989 8.16297C4.20538 7.91556 4.34487 7.65476 4.59184 7.57953C6.77085 6.91835 9.47977 7.23862 11.3319 8.37677C11.5518 8.51218 11.6213 8.80021 11.4859 9.01989V9.01982ZM11.5489 7.31858C9.61518 6.16998 6.42473 6.06436 4.57845 6.62473C4.28197 6.71465 3.96844 6.54728 3.87859 6.2508C3.78875 5.95417 3.95597 5.64085 4.25266 5.55071C6.37206 4.9073 9.89532 5.03161 12.1217 6.35333C12.3889 6.5116 12.4763 6.85601 12.318 7.12233C12.1604 7.38901 11.815 7.47693 11.5492 7.31858H11.5489Z" fill="#1DB954"/>
</svg>
